<svg width="97" height="96" viewBox="0 0 97 96" fill="none" xmlns="http://www.w3.org/2000/svg">
<path d="M48.5 88C26.408 88 8.5 70.092 8.5 48C8.5 25.908 26.408 8 48.5 8C70.592 8 88.5 25.908 88.5 48C88.5 70.092 70.592 88 48.5 88ZM48.5 80C56.9869 80 65.1263 76.6286 71.1274 70.6274C77.1286 64.6263 80.5 56.4869 80.5 48C80.5 39.5131 77.1286 31.3737 71.1274 25.3726C65.1263 19.3714 56.9869 16 48.5 16C40.0131 16 31.8737 19.3714 25.8726 25.3726C19.8714 31.3737 16.5 39.5131 16.5 48C16.5 56.4869 19.8714 64.6263 25.8726 70.6274C31.8737 76.6286 40.0131 80 48.5 80ZM44.5 60H52.5V68H44.5V60ZM44.5 28H52.5V52H44.5V28Z" fill="#EC1E1E"/>
</svg>

