<svg width="40" height="40" viewBox="0 0 40 40" fill="none" xmlns="http://www.w3.org/2000/svg">
<rect opacity="0.24" width="40" height="40" rx="8" fill="#FFA469"/>
<path d="M12 13V27H28V13H12ZM11 11H29C29.2652 11 29.5196 11.1054 29.7071 11.2929C29.8946 11.4804 30 11.7348 30 12V28C30 28.2652 29.8946 28.5196 29.7071 28.7071C29.5196 28.8946 29.2652 29 29 29H11C10.7348 29 10.4804 28.8946 10.2929 28.7071C10.1054 28.5196 10 28.2652 10 28V12C10 11.7348 10.1054 11.4804 10.2929 11.2929C10.4804 11.1054 10.7348 11 11 11ZM20 17V14L25 19H16V17H20ZM15 21H24V23H20V26L15 21Z" fill="#FF8333"/>
</svg>

